# xmcd
#
# Track frame offsets:
# 150
# 16735
# 39007
# 60720
# 82955
# 104440
# 126360
# 148740
# 171097
# 189232
# 207822
#
# Disc length: 3058 seconds
#
#
# Revision: 2
# Processed by: cddbd v1.5.2PL0 Copyright (c) Steve Scherf et al.
# Submitted via: FreeRIP 2.945 
#
DISCID=890bf00b
DTITLE=Trem Bala - Isso Que E Pagode
DYEAR=1900
DGENRE=Samba
TTITLE0=Na Palma Do Mao - Dona Fia - O Irene - Vai La
TTITLE1=Insensato Destino - Rendicao - Fogo De Saudade
TTITLE2=Te Amo - Cega De Sofrer
TTITLE3=Momentos - Sentimento Nu - Pela Vida Inteira
TTITLE4=Minta Meu Sonho - Maior Abandono - Saudade Louca
TTITLE5=Gamei - Dere - Pra Te Conquistar
TTITLE6=Canto De Oracao (Oya) - Brilho No Olhar - Coral De Anjos
TTITLE7=Ainda E Tempo Pra Ser Feliz - So Quero Te Namorar - Pra Ser Minha Musa
TTITLE8=Delegado Chico Palha - Banho De Felicidade - Tem Que Ter Fe
TTITLE9=Castelo De Cera - Casal Sem Vergonha - Brincadeira Tem Hora
TTITLE10=Voi Festejar - Caciqueando - Fim De Ano
EXTD=
EXTT0=
EXTT1=
EXTT2=
EXTT3=
EXTT4=
EXTT5=
EXTT6=
EXTT7=
EXTT8=
EXTT9=
EXTT10=
PLAYORDER=
